<svg width="702" height="691" viewBox="0 0 702 691" xmlns="http://www.w3.org/2000/svg" role="img" aria-label="TheDopeCloudTeacHer.org logo">
  <defs>
    <linearGradient id="cloudBlue" x1="106" y1="329" x2="596" y2="329" gradientUnits="userSpaceOnUse">
      <stop offset="0" stop-color="#1d8eea"/>
      <stop offset="1" stop-color="#0f5fca"/>
    </linearGradient>
    <linearGradient id="markBlue" x1="251" y1="384" x2="466" y2="384" gradientUnits="userSpaceOnUse">
      <stop offset="0" stop-color="#1d8eea"/>
      <stop offset="1" stop-color="#0f5fca"/>
    </linearGradient>
  </defs>

  <rect width="702" height="691" fill="none"/>

  <path d="M536 456H244c-76 0-138-59-138-132 0-65 49-119 114-130 22-52 74-88 134-88 73 0 134 53 145 123 56 7 99 54 99 111 0 64-56 116-126 116h-26" fill="none" stroke="url(#cloudBlue)" stroke-width="22" stroke-linecap="round" stroke-linejoin="round"/>

  <path d="M251 303l46-30h106l63 43H251z" fill="url(#markBlue)"/>
  <path d="M340 303h35v146l-35-22V303z" fill="url(#markBlue)"/>
  <rect x="469" y="303" width="4" height="34" fill="#176fd3"/>
  <circle cx="471" cy="337" r="6" fill="#176fd3"/>
  <path d="M471 344l-6 36h12l-6-36z" fill="#176fd3"/>
  <rect x="465" y="379" width="12" height="4" rx="2" fill="#176fd3"/>

  <g fill="#176fd3" text-anchor="middle">
    <text x="351" y="526" font-family="Poppins, Nunito, Segoe UI, Arial, sans-serif" font-size="56" font-weight="600" letter-spacing="0.2">TheDopeCloudTeacHer</text>
    <text x="558" y="526" font-family="Poppins, Nunito, Segoe UI, Arial, sans-serif" font-size="49" font-weight="400">.org</text>
  </g>
</svg>