<svg xmlns="http://www.w3.org/2000/svg" viewBox="0 0 960 540">
  <defs>
    <linearGradient id="bg" x1="0" y1="0" x2="1" y2="1"><stop offset="0" stop-color="#312e81"/><stop offset="1" stop-color="#0891b2"/></linearGradient>
  </defs>
  <rect width="960" height="540" rx="28" fill="url(#bg)"/>
  <g opacity="0.35" stroke="#dbeafe" stroke-width="2">
    <path d="M60 100h840M60 180h840M60 260h840M60 340h840M60 420h840"/>
    <path d="M120 60v420M240 60v420M360 60v420M480 60v420M600 60v420M720 60v420M840 60v420"/>
  </g>
  <path d="M480 120l140 50v95c0 85-56 142-140 174-84-32-140-89-140-174v-95z" fill="#0f172a" stroke="#f8fafc" stroke-width="8"/>
  <path d="M420 270l38 38 86-86" stroke="#22c55e" stroke-width="16" fill="none" stroke-linecap="round" stroke-linejoin="round"/>
  <text x="56" y="500" fill="#f8fafc" font-size="44" font-family="Inter,Segoe UI,sans-serif" font-weight="800">Live Threat Detection • SOC Simulation</text>
</svg>