<svg viewBox="0 0 600 800" xmlns="http://www.w3.org/2000/svg" font-family="'IBM Plex Mono','Courier New',monospace">
  <defs>
    <pattern id="grid4" width="24" height="24" patternUnits="userSpaceOnUse">
      <path d="M24 0 H0 V24" fill="none" stroke="#1A1D24" stroke-opacity="0.06" stroke-width="1"/>
    </pattern>
  </defs>

  <rect width="600" height="800" fill="#F6F4EE"/>
  <rect width="600" height="800" fill="url(#grid4)"/>

  <g stroke="#1A1D24" stroke-width="1.2">
    <path d="M20 34 H36 M34 20 V36"/><path d="M580 34 H564 M566 20 V36"/>
    <path d="M20 766 H36 M34 780 V764"/><path d="M580 766 H564 M566 780 V764"/>
  </g>

  <text x="52" y="76" font-size="11" letter-spacing="3" fill="#059669">VISUAL PLAYBOOK - SHEET NO 04</text>
  <g font-family="'Bebas Neue','Oswald','Arial Narrow',sans-serif" fill="#1A1D24">
    <text x="50" y="136" font-size="54" letter-spacing="1">DEVSECOPS</text>
    <text x="50" y="188" font-size="54" letter-spacing="1">CONTINUOUS LOOP</text>
  </g>
  <line x1="52" y1="208" x2="548" y2="208" stroke="#1A1D24" stroke-width="2"/>

  <circle cx="212" cy="430" r="96" fill="none" stroke="#0D9488" stroke-width="26"/>
  <circle cx="388" cy="430" r="96" fill="none" stroke="#1A1D24" stroke-width="26"/>
  <path d="M 280 498 A 96 96 0 0 0 308 430" fill="none" stroke="#0D9488" stroke-width="26"/>

  <path d="M206 320 l20 11 -18 13" fill="#F6F4EE"/>
  <path d="M396 540 l-20 -11 18 -13" fill="#F6F4EE"/>

  <g transform="translate(300 430)">
    <path d="M0 -46 L38 -32 V6 C38 34 20 50 0 58 C-20 50 -38 34 -38 6 V-32 Z"
          fill="#F6F4EE" stroke="#059669" stroke-width="4"/>
    <text y="12" text-anchor="middle" font-size="20" font-weight="bold" letter-spacing="2" fill="#059669">SEC</text>
  </g>

  <text x="212" y="438" text-anchor="middle" font-size="15" letter-spacing="4" fill="#0D9488" font-weight="bold">DEV</text>
  <text x="388" y="438" text-anchor="middle" font-size="15" letter-spacing="4" fill="#1A1D24" font-weight="bold">OPS</text>

  <g font-size="10" letter-spacing="2" fill="#1A1D24">
    <text x="120" y="316" text-anchor="middle">PLAN</text>
    <text x="212" y="300" text-anchor="middle">CODE</text>
    <text x="94" y="440" text-anchor="end">BUILD</text>
    <text x="212" y="566" text-anchor="middle">TEST</text>
    <text x="388" y="300" text-anchor="middle">RELEASE</text>
    <text x="506" y="440" text-anchor="start">DEPLOY</text>
    <text x="388" y="566" text-anchor="middle">OPERATE</text>
    <text x="482" y="316" text-anchor="middle">MONITOR</text>
  </g>
  <g stroke="#1A1D24" stroke-opacity="0.45" stroke-width="1.4">
    <line x1="212" y1="308" x2="212" y2="320"/>
    <line x1="102" y1="436" x2="114" y2="434"/>
    <line x1="212" y1="552" x2="212" y2="540"/>
    <line x1="388" y1="308" x2="388" y2="320"/>
    <line x1="498" y1="436" x2="486" y2="434"/>
    <line x1="388" y1="552" x2="388" y2="540"/>
  </g>

  <g>
    <line x1="140" y1="628" x2="252" y2="628" stroke="#059669" stroke-width="2"/>
    <path d="M140 628 l12 -7 v14 z" fill="#059669"/>
    <text x="264" y="632" font-size="10" letter-spacing="2" fill="#1A1D24">SHIFT LEFT - SECURITY AT EVERY STAGE</text>
  </g>

  <g transform="rotate(-5 486 646)">
    <rect x="434" y="620" width="106" height="52" rx="6" fill="none" stroke="#059669" stroke-width="2.4" opacity="0.85"/>
    <text x="487" y="644" text-anchor="middle" font-size="17" font-weight="bold" letter-spacing="2" fill="#059669" opacity="0.85">AZ-400</text>
    <text x="487" y="660" text-anchor="middle" font-size="8" letter-spacing="2.5" fill="#059669" opacity="0.85">CERT OBJECTIVE</text>
  </g>

  <g>
    <line x1="52" y1="716" x2="548" y2="716" stroke="#1A1D24" stroke-width="2"/>
    <line x1="52" y1="756" x2="548" y2="756" stroke="#1A1D24" stroke-width="1"/>
    <line x1="248" y1="716" x2="248" y2="756" stroke="#1A1D24" stroke-width="1"/>
    <line x1="368" y1="716" x2="368" y2="756" stroke="#1A1D24" stroke-width="1"/>
    <line x1="462" y1="716" x2="462" y2="756" stroke="#1A1D24" stroke-width="1"/>
    <g font-size="8" letter-spacing="1.5" fill="#8A8C92">
      <text x="52" y="728">SERIES</text><text x="256" y="728">MODULE</text>
      <text x="376" y="728">SHEET</text><text x="470" y="728">REV / SCALE</text>
    </g>
    <g font-size="10" letter-spacing="1.5" fill="#1A1D24">
      <text x="52" y="746">THE DOPE CLOUD TEACHER</text>
      <text x="256" y="746">DEVSECOPS</text>
      <text x="376" y="746">PB-04</text>
      <text x="470" y="746">A - NTS</text>
    </g>
  </g>
</svg>
