<svg xmlns="http://www.w3.org/2000/svg" viewBox="0 0 900 300" width="900" height="300" role="img" aria-labelledby="t_cover-az104"><title id="t_cover-az104">Azure Administrator course cover</title>
<style>
 text{font-family:'Source Sans 3', 'Segoe UI', Tahoma, Geneva, Verdana, sans-serif;fill:#0B0B12}
 .t{font-size:15px;font-weight:600} .s{font-size:12px;fill:#354150} .h{font-size:20px;font-weight:800}
 .k{font-size:11px;letter-spacing:1.5px;font-weight:700;fill:#354150} .w{fill:#fff}
 .flow{stroke-dasharray:6 6;animation:dash 1.4s linear infinite}
 .pulse{animation:pulse 2.6s ease-in-out infinite;transform-box:fill-box;transform-origin:center}
 @keyframes dash{to{stroke-dashoffset:-24}}
 @keyframes pulse{0%,100%{opacity:1;transform:scale(1)}50%{opacity:.75;transform:scale(1.04)}}
 @keyframes rise{from{opacity:.15;transform:translateY(6px)}to{opacity:1;transform:none}}
 @media (prefers-reduced-motion: reduce){.flow,.pulse,.rise{animation:none}}
</style><defs><marker id="ah" viewBox="0 0 10 10" refX="9" refY="5" markerWidth="7" markerHeight="7" orient="auto-start-reverse"><path d="M0,0 L10,5 L0,10 z" fill="#354150"/></marker></defs><rect x="0" y="0" width="900" height="300" rx="18" fill="#ffffff"/><rect x="0.5" y="0.5" width="899" height="299" rx="18" fill="none" stroke="#d9e7f7"/><defs><linearGradient id="g_cover-az104" x1="0" y1="0" x2="1" y2="1"><stop offset="0" stop-color="#0B0B12"/><stop offset="1" stop-color="#102b48"/></linearGradient></defs><rect x="0" y="0" width="900" height="300" rx="18" fill="url(#g_cover-az104)"/><line x1="506" y1="51" x2="603" y2="80" stroke="#fff" opacity=".35" class="flow"/><line x1="506" y1="51" x2="522" y2="88" stroke="#fff" opacity=".35" class="flow"/><line x1="465" y1="193" x2="483" y2="96" stroke="#fff" opacity=".35" class="flow"/><line x1="465" y1="193" x2="522" y2="88" stroke="#fff" opacity=".35" class="flow"/><line x1="603" y1="80" x2="695" y2="111" stroke="#fff" opacity=".35" class="flow"/><line x1="603" y1="80" x2="614" y2="159" stroke="#fff" opacity=".35" class="flow"/><line x1="695" y1="111" x2="775" y2="60" stroke="#fff" opacity=".35" class="flow"/><line x1="751" y1="236" x2="811" y2="185" stroke="#fff" opacity=".35" class="flow"/><line x1="483" y1="96" x2="506" y2="51" stroke="#fff" opacity=".35" class="flow"/><line x1="483" y1="96" x2="603" y2="80" stroke="#fff" opacity=".35" class="flow"/><line x1="483" y1="96" x2="492" y2="46" stroke="#fff" opacity=".35" class="flow"/><line x1="483" y1="96" x2="522" y2="88" stroke="#fff" opacity=".35" class="flow"/><line x1="492" y1="46" x2="506" y2="51" stroke="#fff" opacity=".35" class="flow"/><line x1="492" y1="46" x2="603" y2="80" stroke="#fff" opacity=".35" class="flow"/><line x1="492" y1="46" x2="522" y2="88" stroke="#fff" opacity=".35" class="flow"/><line x1="775" y1="60" x2="824" y2="58" stroke="#fff" opacity=".35" class="flow"/><line x1="775" y1="60" x2="811" y2="185" stroke="#fff" opacity=".35" class="flow"/><line x1="441" y1="145" x2="506" y2="51" stroke="#fff" opacity=".35" class="flow"/><line x1="441" y1="145" x2="465" y2="193" stroke="#fff" opacity=".35" class="flow"/><line x1="441" y1="145" x2="483" y2="96" stroke="#fff" opacity=".35" class="flow"/><line x1="441" y1="145" x2="492" y2="46" stroke="#fff" opacity=".35" class="flow"/><line x1="441" y1="145" x2="522" y2="88" stroke="#fff" opacity=".35" class="flow"/><line x1="614" y1="159" x2="695" y2="111" stroke="#fff" opacity=".35" class="flow"/><line x1="407" y1="52" x2="506" y2="51" stroke="#fff" opacity=".35" class="flow"/><line x1="407" y1="52" x2="483" y2="96" stroke="#fff" opacity=".35" class="flow"/><line x1="407" y1="52" x2="492" y2="46" stroke="#fff" opacity=".35" class="flow"/><line x1="407" y1="52" x2="441" y2="145" stroke="#fff" opacity=".35" class="flow"/><line x1="407" y1="52" x2="522" y2="88" stroke="#fff" opacity=".35" class="flow"/><line x1="522" y1="88" x2="603" y2="80" stroke="#fff" opacity=".35" class="flow"/><line x1="522" y1="88" x2="614" y2="159" stroke="#fff" opacity=".35" class="flow"/><line x1="811" y1="185" x2="824" y2="58" stroke="#fff" opacity=".35" class="flow"/><circle cx="506" cy="51" r="6" fill="#fff" class="pulse"/><circle cx="465" cy="193" r="6" fill="#fff" class="pulse"/><circle cx="603" cy="80" r="6" fill="#fff" class="pulse"/><circle cx="695" cy="111" r="6" fill="#fff" class="pulse"/><circle cx="824" cy="58" r="6" fill="#fff" class="pulse"/><circle cx="751" cy="236" r="6" fill="#fff" class="pulse"/><circle cx="483" cy="96" r="6" fill="#fff" class="pulse"/><circle cx="492" cy="46" r="6" fill="#fff" class="pulse"/><circle cx="775" cy="60" r="6" fill="#fff" class="pulse"/><circle cx="441" cy="145" r="6" fill="#fff" class="pulse"/><circle cx="614" cy="159" r="6" fill="#fff" class="pulse"/><circle cx="407" cy="52" r="6" fill="#fff" class="pulse"/><circle cx="522" cy="88" r="6" fill="#fff" class="pulse"/><circle cx="811" cy="185" r="6" fill="#fff" class="pulse"/><rect x="40" y="44" width="94" height="30" rx="15" fill="#102b48"/><text x="54" y="60.0" class="k" text-anchor="start" dominant-baseline="middle" style="fill:#fff">AZ-104</text><text x="40" y="140" style="font-family:'Source Sans 3', 'Segoe UI', Tahoma, Geneva, Verdana, sans-serif;font-size:37px;font-weight:800;fill:#fff">Azure Administrator</text><text x="40" y="182" style="font-family:'Source Sans 3', 'Segoe UI', Tahoma, Geneva, Verdana, sans-serif;font-size:18px;fill:#dbe4ff">The operator layer</text><text x="40" y="258" style="font-family:'Source Sans 3', 'Segoe UI', Tahoma, Geneva, Verdana, sans-serif;font-size:12px;letter-spacing:2px;font-weight:700;fill:#ffffffb3">THE DOPE CLOUD TEACHER</text></svg>